<svg width="23" height="26" viewBox="0 0 23 26" fill="none" xmlns="http://www.w3.org/2000/svg">
<g clip-path="url(#clip0_1136_752)">
<path d="M3.66204 21.6779H10.7357V14.8995H12.8685C14.3652 14.8995 15.8006 14.3049 16.8589 13.2466C17.9172 12.1883 18.5117 10.753 18.5117 9.25629C18.5117 7.75962 17.9172 6.32426 16.8589 5.26595C15.8006 4.20765 14.3652 3.6131 12.8685 3.6131H3.66204V21.6779ZM14.3988 25.2911H0V0.000933345H12.8685C15.2114 -0.0323359 17.4795 0.824891 19.2147 2.39942C20.9499 3.97395 22.0227 6.1484 22.2165 8.48345C22.4103 10.8185 21.7106 13.1401 20.2587 14.9791C18.8068 16.8181 16.7111 18.0375 14.3948 18.391L14.3988 25.2911Z" fill="#428BF9"/>
</g>
<defs>
<clipPath id="clip0_1136_752">
<rect width="22.2482" height="25.2911" fill="white"/>
</clipPath>
</defs>
</svg>
